<svg xmlns="http://www.w3.org/2000/svg" xmlns:xlink="http://www.w3.org/1999/xlink" width="179" height="259" viewBox="0 0 179 259">
  <defs>
    <path id="logo--large-a" d="M98.6748971,199.771967 C96.3916701,199.92399 94.5660804,200 93.1980831,200 C90.7060578,200 88.5495299,199.737316 86.7284345,199.21194 C84.9073391,198.686565 83.1581554,197.802991 81.4808307,196.561194 C79.803506,195.319397 78.0543222,193.695532 76.2332268,191.689552 C74.4121315,189.683572 72.3514492,187.247776 70.0511182,184.38209 C69.7635768,183.999998 68.6613514,182.495536 66.7444089,179.868657 C64.8274665,177.241778 62.6469771,174.185092 60.2028754,170.698507 C57.7587737,167.211923 55.2667859,163.67763 52.7268371,160.095522 C50.1868883,156.513415 48.1501674,153.576131 46.6166134,151.283582 L46.0415335,151.283582 C44.9872152,152.047765 43.9808355,152.740295 43.0223642,153.361194 C42.063893,153.982093 41.0095904,154.770144 39.8594249,155.725373 L39.8594249,173.850746 C39.8594249,176.000011 39.8833863,177.791038 39.9313099,179.223881 C39.9792335,180.656724 40.0271563,181.874622 40.0750799,182.877612 C40.1230034,183.880602 40.1948877,184.955218 40.2907348,186.101493 C40.4824291,188.776133 40.9137347,190.638801 41.5846645,191.689552 C42.2555944,192.740304 42.9744371,193.599997 43.7412141,194.268657 C44.6038382,194.937317 45.730025,195.343283 47.1198083,195.486567 C48.5095916,195.629851 49.9712383,195.701493 51.5047923,195.701493 L52.0798722,196.274627 L52.5111821,198.853731 L52.2236422,199.426866 C51.5527123,199.426866 50.4504869,199.379105 48.9169329,199.283582 C47.3833789,199.188059 45.8019251,199.092538 44.172524,198.997015 C42.5431228,198.901492 40.961669,198.805971 39.428115,198.710448 C37.894561,198.614925 36.7923356,198.567164 36.1214058,198.567164 L33.3897764,198.567164 C32.7188465,198.567164 31.6166211,198.614925 30.0830671,198.710448 C28.5495131,198.805971 26.9680593,198.901492 25.3386581,198.997015 C23.709257,199.092538 22.1278032,199.188059 20.5942492,199.283582 C19.0606952,199.379105 17.9584698,199.426866 17.2875399,199.426866 L17,198.853731 L17.4313099,196.274627 L18.1501597,195.701493 C19.6837137,195.701493 21.121399,195.629851 22.4632588,195.486567 C23.8051185,195.343283 24.9073439,194.937317 25.7699681,194.268657 C26.536745,193.599997 27.2795491,192.740304 27.9984026,191.689552 C28.717256,190.638801 29.172523,188.776133 29.3642173,186.101493 C29.3642173,185.432832 29.3881787,184.644781 29.4361022,183.737313 C29.4840258,182.829846 29.5319486,181.707469 29.5798722,180.370149 C29.6277958,179.032829 29.6517572,177.408965 29.6517572,175.498507 L29.6517572,124.919403 C29.6517572,123.295514 29.6277958,121.910453 29.5798722,120.764179 C29.5319486,119.617905 29.4600644,118.471648 29.3642173,117.325373 C29.172523,114.746256 28.717256,112.907468 27.9984026,111.808955 C27.2795491,110.710442 26.536745,109.826869 25.7699681,109.158209 C24.9073439,108.489549 23.8051185,108.083583 22.4632588,107.940299 C21.121399,107.797014 19.6837137,107.725373 18.1501597,107.725373 L17.4313099,107.152239 L17,104.573134 L17.2875399,104 C17.9584698,104 19.0606952,104.047761 20.5942492,104.143284 C22.1278032,104.238806 23.709257,104.334328 25.3386581,104.429851 C26.9680593,104.525374 28.5495131,104.620895 30.0830671,104.716418 C31.6166211,104.811941 32.7188465,104.859701 33.3897764,104.859701 L36.1214058,104.859701 C36.7923356,104.859701 37.894561,104.811941 39.428115,104.716418 C40.961669,104.620895 42.5431228,104.525374 44.172524,104.429851 C45.8019251,104.334328 47.3833789,104.238806 48.9169329,104.143284 C50.4504869,104.047761 51.5527123,104 52.2236422,104 L52.5111821,104.573134 L52.0798722,107.152239 L51.5047923,107.725373 C49.9712383,107.725373 48.5095916,107.797014 47.1198083,107.940299 C45.730025,108.083583 44.6038382,108.489549 43.7412141,109.158209 C42.9744371,109.826869 42.2555944,110.686562 41.5846645,111.737313 C40.9137347,112.788065 40.4824291,114.650733 40.2907348,117.325373 C40.1948877,118.662693 40.1230034,119.904472 40.0750799,121.050746 C40.0271563,122.197021 39.9792335,123.534321 39.9313099,125.062687 C39.8833863,126.591052 39.8594249,128.45372 39.8594249,130.650746 L39.8594249,148.847761 C42.4472973,147.223872 45.5862435,144.883597 49.2763578,141.826866 C52.9664721,138.770134 56.536724,135.522405 59.9872204,132.083582 C64.1086468,127.976099 67.5590915,124.131361 70.3386581,120.549254 C73.1182248,116.967146 74.5079872,114.507469 74.5079872,113.170149 C74.5079872,112.119398 74.268373,111.283585 73.7891374,110.662687 C73.3099018,110.041788 72.7108662,109.5403 71.9920128,109.158209 C71.2731593,108.776117 70.458471,108.489553 69.5479233,108.298507 C68.6373756,108.107462 67.7028802,107.916419 66.7444089,107.725373 L66.0255591,107.152239 L66.0255591,104.573134 L66.7444089,104 C70.5782939,104.573137 74.7955042,104.859701 79.3961661,104.859701 L89.3881789,104.859701 C90.2028795,104.859701 91.0175678,104.811941 91.8322684,104.716418 C92.6469689,104.620895 93.5335415,104.525374 94.4920128,104.429851 C95.450484,104.334328 96.6006323,104.191046 97.942492,104 L98.5175719,104.573134 L98.5175719,107.152239 L97.942492,107.725373 C96.6964794,108.011942 95.0191799,108.370147 92.9105431,108.8 C90.8019064,109.229853 89.0287612,109.922383 87.5910543,110.877612 C86.6325831,111.450749 85.5543191,112.358203 84.35623,113.6 C83.158141,114.841797 81.7204557,116.417901 80.043131,118.328358 C78.3658063,120.238816 76.3770083,122.483569 74.0766773,125.062687 C71.7763463,127.641804 68.9968214,130.555208 65.7380192,133.802985 L54.2364217,145.552239 C62.1917331,157.58812 71.0095363,169.289495 80.6900958,180.656716 C82.6070383,182.853742 84.3801835,184.811932 86.0095847,186.531343 C87.6389858,188.250755 89.3881696,189.731337 91.2571885,190.973134 C93.1262074,192.214932 95.2108511,193.217907 97.5111821,193.98209 C97.8863413,194.10672 98.2742462,194.226268 98.6748971,194.340735 L98.6748971,184.045045 C98.6748971,182.411403 98.6508919,181.018024 98.6028807,179.864865 C98.5548694,178.711706 98.4828537,177.558564 98.3868313,176.405405 C98.1947864,173.810798 97.7386867,171.960966 97.0185185,170.855856 C96.2983503,169.750745 95.5541877,168.861865 94.7860082,168.189189 C93.9218064,167.516513 92.817565,167.108109 91.473251,166.963964 C90.128937,166.819819 88.6886222,166.747748 87.1522634,166.747748 L86.4320988,166.171171 L86,163.576577 L86.2880658,163 C86.9602228,163 88.0644642,163.048048 89.600823,163.144144 C91.1371819,163.240241 92.7935439,163.336336 94.5699588,163.432432 C96.3463738,163.528529 98.0747515,163.624624 99.755144,163.720721 C101.435537,163.816817 102.803836,163.864865 103.860082,163.864865 L127.481481,163.864865 C128.729773,163.864865 130.626188,163.840841 133.170782,163.792793 C135.715376,163.744745 138.283938,163.672673 140.876543,163.576577 C143.469149,163.48048 145.797658,163.408409 147.86214,163.36036 C149.926622,163.312312 151.1989,163.288288 151.679012,163.288288 L152.399177,164.72973 L151.823045,180.441441 L148.222222,180.441441 L147.646091,179.864865 C147.454046,177.654644 147.189988,175.924931 146.853909,174.675676 C146.517831,173.42642 145.557621,172.513516 143.973251,171.936937 C142.388881,171.360357 140.012362,171.024025 136.843621,170.927928 C133.674881,170.831831 129.209905,170.783784 123.44856,170.783784 L109.621399,170.783784 L109.333333,176.405405 C109.237311,177.942951 109.165295,179.240235 109.117284,180.297297 C109.069273,181.35436 109.021262,182.651644 108.973251,184.189189 C108.92524,185.726734 108.901235,187.576566 108.901235,189.738739 L108.901235,205.378378 C111.781907,205.282282 114.662537,205.234234 117.54321,205.234234 C120.423883,205.234234 123.040455,205.186187 125.393004,205.09009 C127.745554,204.993994 129.737989,204.777779 131.37037,204.441441 C133.002752,204.105103 134.106993,203.600604 134.683128,202.927928 C135.451307,202.159155 136.123454,201.390394 136.699588,200.621622 C137.275723,199.852849 137.563786,198.747755 137.563786,197.306306 L138.283951,196.585586 L140.73251,196.297297 L141.308642,196.585586 C141.116597,198.795807 140.94856,200.71771 140.804527,202.351351 C140.660493,203.984993 140.588477,205.858848 140.588477,207.972973 C140.588477,210.279291 140.660493,212.417408 140.804527,214.387387 C140.94856,216.357367 141.116597,218.495484 141.308642,220.801802 L140.73251,221.09009 L138.139918,220.801802 L137.563786,220.369369 C137.563786,218.831824 137.275723,217.414421 136.699588,216.117117 C136.123454,214.819813 135.451307,213.738743 134.683128,212.873874 C134.106993,212.297294 133.002752,211.864866 131.37037,211.576577 C129.737989,211.288287 127.769559,211.096097 125.465021,211 C123.160482,210.903903 120.567916,210.855856 117.687243,210.855856 L108.901235,210.855856 L108.901235,233.27027 C108.901235,235.432443 108.92524,237.354346 108.973251,239.036036 C109.021262,240.717726 109.093278,242.255248 109.1893,243.648649 C109.285323,245.042049 109.429354,246.651643 109.621399,248.477477 C109.621399,250.303312 110.581609,251.216216 112.502058,251.216216 L124.744856,251.216216 C130.506202,251.216216 135.043193,251.096097 138.355967,250.855856 C141.668741,250.615614 144.189292,250.111115 145.917695,249.342342 C147.646099,248.57357 148.870367,247.396404 149.590535,245.810811 C150.310703,244.225217 151.006855,242.135148 151.679012,239.540541 L152.255144,238.963964 L156,238.963964 L153.407407,257.27027 L152.255144,258.711712 C151.775032,258.711712 150.670791,258.687688 148.942387,258.63964 C147.213983,258.591591 145.269558,258.51952 143.109053,258.423423 C140.948549,258.327327 138.788077,258.255255 136.627572,258.207207 C134.467067,258.159159 132.762695,258.135135 131.514403,258.135135 L102.419753,258.135135 C101.747596,258.135135 100.643355,258.183183 99.1069959,258.279279 C97.570637,258.375376 95.9862907,258.471471 94.3539095,258.567568 C92.7215282,258.663664 91.1371819,258.759759 89.600823,258.855856 C88.0644642,258.951952 86.9602228,259 86.2880658,259 L86,258.423423 L86.4320988,255.828829 L87.1522634,255.252252 C88.6886222,255.252252 90.128937,255.180181 91.473251,255.036036 C92.817565,254.891891 93.9218064,254.483487 94.7860082,253.810811 C95.5541877,253.138135 96.2983503,252.273279 97.0185185,251.216216 C97.7386867,250.159154 98.1947864,248.285299 98.3868313,245.594595 C98.3868313,244.921919 98.4108365,244.129134 98.4588477,243.216216 C98.506859,242.303299 98.5548694,241.174181 98.6028807,239.828829 C98.6508919,238.483477 98.6748971,236.849859 98.6748971,234.927928 L98.6748971,199.771967 Z M110.648588,95.3209355 C110.423542,95.3070501 110.199503,95.2931647 109.976471,95.2792793 C108.432933,95.1831827 107.323533,95.1351351 106.648235,95.1351351 L103.898824,95.1351351 C103.223526,95.1351351 102.114125,95.1831827 100.570588,95.2792793 C99.0270511,95.3753759 97.4353023,95.471471 95.7952941,95.5675676 C94.1552859,95.6636641 92.5635371,95.7597593 91.02,95.8558559 C89.4764629,95.9519524 88.3670622,96 87.6917647,96 L87.2576471,95.4234234 L87.6917647,92.8288288 L88.2705882,92.2522523 C89.8141254,92.2522523 91.2852871,92.1801809 92.6841176,92.036036 C94.0829482,91.8918912 95.1682314,91.4834868 95.94,90.8108108 C96.6152975,90.1381348 97.2664675,89.2732786 97.8935294,88.2162162 C98.5205914,87.1591539 98.8341176,85.2852987 98.8341176,82.5945946 L98.8341176,80.2162162 C98.8341176,79.3032987 98.8100002,78.1741809 98.7617647,76.8288288 C98.7135292,75.4834768 98.641177,73.8498595 98.5447059,71.9279279 C98.4482348,70.0059964 98.3035304,67.603618 98.1105882,64.7207207 C97.3388197,54.6305802 96.7358845,46.5826126 96.3017647,40.5765766 C95.8676449,34.5705405 95.5058838,29.8859027 95.2164706,26.5225225 C94.9270574,23.1591423 94.7100007,20.756764 94.5652941,19.3153153 L94.2035294,15.7117117 C93.5282319,17.4414501 92.4670661,20.1080901 91.02,23.7117117 C89.5729339,27.3153333 87.9088329,31.4474241 86.0276471,36.1081081 C84.1464612,40.7687921 82.1447165,45.7417153 80.0223529,51.027027 C77.8999894,56.3123387 75.8017751,61.5495236 73.7276471,66.7387387 C71.653519,71.9279539 69.6758918,76.8288058 67.7947059,81.4414414 C65.91352,86.0540771 64.2976538,89.9939777 62.9470588,93.2612613 L56.1458824,93.2612613 L27.2047059,16 C27.1082348,16.9609658 27.0117652,17.9699647 26.9152941,19.027027 C26.818823,20.0840894 26.7223534,21.3573499 26.6258824,22.8468468 C26.5294113,24.3363438 26.4088243,26.0660562 26.2641176,28.036036 C26.119411,30.0060159 25.9505892,32.432418 25.7576471,35.3153153 L23.7317647,61.8378378 C23.4423515,65.1051214 23.2494122,67.7957852 23.1529412,69.9099099 C23.0564701,72.0240346 22.9600005,73.8498422 22.8635294,75.3873874 C22.7670583,76.9249326 22.7188235,78.2222169 22.7188235,79.2792793 L22.7188235,82.5945946 C22.7188235,85.2852987 23.0323498,87.1591539 23.6594118,88.2162162 C24.2864737,89.2732786 24.9858785,90.1381348 25.7576471,90.8108108 C26.5294156,91.4834868 27.4217596,91.8918912 28.4347059,92.036036 C29.4476521,92.1801809 30.7258746,92.2522523 32.2694118,92.2522523 L32.8482353,92.8288288 L33.2823529,95.4234234 L32.9929412,96 C32.3176437,96 31.32883,95.9519524 30.0264706,95.8558559 C28.7241111,95.7597593 27.3976538,95.6636641 26.0470588,95.5675676 C24.6964638,95.471471 23.3700065,95.3753759 22.0676471,95.2792793 C20.7652876,95.1831827 19.776474,95.1351351 19.1011765,95.1351351 L16.3517647,95.1351351 C15.6764672,95.1351351 14.5911839,95.1831827 13.0958824,95.2792793 C11.6005808,95.3753759 10.008832,95.471471 8.32058824,95.5675676 C6.6323445,95.6636641 5.04059571,95.7597593 3.54529412,95.8558559 C2.04999252,95.9519524 0.964709259,96 0.289411765,96 L5.68434189e-14,95.4234234 L0.434117647,92.8288288 L1.30235294,92.2522523 C2.749419,92.2522523 4.14822854,92.1801809 5.49882353,92.036036 C6.84941852,91.8918912 8.007054,91.4834868 8.97176471,90.8108108 C9.74353327,90.1381348 10.5394077,89.2732786 11.3594118,88.2162162 C12.1794159,87.1591539 12.782351,85.2852987 13.1682353,82.5945946 C13.2647064,81.9219186 13.361176,81.1291337 13.4576471,80.2162162 C13.5541181,79.3032987 13.6747052,78.1741809 13.8194118,76.8288288 C13.9641184,75.4834768 14.1329402,73.8498595 14.3258824,71.9279279 C14.5188245,70.0059964 14.7117637,67.603618 14.9047059,64.7207207 L16.9305882,35.4594595 C17.2200014,32.0960793 17.4370581,29.2612728 17.5817647,26.954955 C17.7264713,24.6486371 17.8229409,22.6786868 17.8711765,21.045045 C17.919412,19.4114032 17.9676468,18.0180238 18.0158824,16.8648649 C18.0641179,15.7117059 18.0882353,14.5585643 18.0882353,13.4054054 C18.0882353,10.7147013 17.6782394,8.81682234 16.8582353,7.71171171 C16.0382312,6.60660108 15.2423568,5.76576865 14.4705882,5.18918919 C13.6023486,4.51651315 12.4929479,4.10810883 11.1423529,3.96396396 C9.79175795,3.8198191 8.3447136,3.74774775 6.80117647,3.74774775 L6.07764706,3.17117117 L5.64352941,0.576576577 L5.93294118,0 C6.60823867,0 7.71763934,0.0480475676 9.26117647,0.144144144 C10.8047136,0.240240721 12.3964624,0.336335856 14.0364706,0.432432432 C15.6764788,0.528529009 17.2682276,0.624624144 18.8117647,0.720720721 C20.3553018,0.816817297 21.4647025,0.864864865 22.14,0.864864865 L27.2047059,0.864864865 C27.9764744,0.864864865 29.0617577,0.816817297 30.4605882,0.720720721 C31.8594188,0.624624144 32.9929368,0.480481441 33.8611765,0.288288288 L34.5847059,0.720720721 C34.681177,1.96997622 35.042938,3.6276173 35.67,5.69369369 C36.297062,7.75977009 37.0688189,10.0900771 37.9852941,12.6846847 C38.9017693,15.2792923 39.8905829,18.0420274 40.9517647,20.972973 C42.0129465,23.9039186 43.0741123,26.8107964 44.1352941,29.6936937 L53.9752941,56.3603604 C55.6153023,60.972996 57.1105815,64.8888728 58.4611765,68.1081081 C59.8117715,71.3273434 61.0176418,74.1861737 62.0788235,76.6846847 C62.3682367,76.2042018 63.1882285,74.3543705 64.5388235,71.1351351 C65.8894185,67.9158998 67.5535195,63.9279517 69.5311765,59.1711712 C71.5088334,54.4143906 73.6070477,49.2012295 75.8258824,43.5315315 C78.044717,37.8618335 80.1670487,32.3123395 82.1929412,26.8828829 C84.2188337,21.4534263 85.9552869,16.4324555 87.4023529,11.8198198 C88.849419,7.20718414 89.7658804,3.55556901 90.1517647,0.864864865 L90.8752941,0.288288288 C91.6470627,0.480481441 92.4670545,0.624624144 93.3352941,0.720720721 C94.2035338,0.816817297 95.0235256,0.864864865 95.7952941,0.864864865 L101.004706,0.864864865 C101.680003,0.864864865 102.789404,0.816817297 104.332941,0.720720721 C105.876478,0.624624144 107.468227,0.528529009 109.108235,0.432432432 C110.748243,0.336335856 112.339992,0.240240721 113.883529,0.144144144 C115.427067,0.0480475676 116.536467,0 117.211765,0 L117.501176,0.576576577 L117.067059,3.17117117 L116.343529,3.74774775 C114.799992,3.74774775 113.328831,3.8198191 111.93,3.96396396 C110.531169,4.10810883 109.445886,4.51651315 108.674118,5.18918919 C107.902349,5.76576865 107.106475,6.63062486 106.286471,7.78378378 C105.466466,8.9369427 105.056471,10.8107978 105.056471,13.4054054 C105.056471,14.7507575 105.080588,15.9999942 105.128824,17.1531532 C105.177059,18.3063121 105.225294,19.651644 105.273529,21.1891892 C105.321765,22.7267344 105.418235,24.6005895 105.562941,26.8108108 C105.707648,29.0210321 105.924704,31.8558386 106.214118,35.3153153 L107.950588,61.8378378 C108.240001,65.2973146 108.457058,68.1080973 108.601765,70.2702703 C108.746471,72.4324432 108.891176,74.234227 109.035882,75.6756757 C109.180589,77.1171243 109.325293,78.3423373 109.47,79.3513514 C109.614707,80.3603654 109.783528,81.4414357 109.976471,82.5945946 C110.362355,85.2852987 110.941173,87.1591539 111.712941,88.2162162 C112.083657,88.7239714 112.45437,89.1873785 112.825082,89.6064404 C113.395453,88.1456065 113.975004,86.6893641 114.563739,85.2377049 C115.912188,81.9128001 117.1643,78.8047835 118.320113,75.9135618 C119.475926,73.0223402 120.511327,70.4684661 121.426346,68.2518629 C122.341364,66.0352597 122.991499,64.3969253 123.376771,63.3368107 L131.90085,59 L133.490085,59 L157.184136,124.630402 C158.147314,127.521624 158.990081,129.930939 159.712465,131.85842 C160.434848,133.785901 161.060904,135.424236 161.590652,136.773472 C162.120399,138.122709 162.577902,139.255087 162.963173,140.170641 C163.348444,141.086194 163.685551,141.881268 163.974504,142.555887 C165.034,144.965238 166.117558,146.820411 167.225212,148.121461 C168.332867,149.42251 169.464583,150.386236 170.620397,151.012668 C171.77621,151.639099 172.956085,152.000496 174.160057,152.09687 C175.364029,152.193244 176.592062,152.241431 177.844193,152.241431 L178.566572,152.819672 L179,155.421759 L178.711048,156 C178.036824,156 177.025502,155.951814 175.677054,155.85544 C174.328605,155.759066 172.932019,155.662693 171.487252,155.566319 C170.042486,155.469945 168.669978,155.373572 167.369688,155.277198 C166.069399,155.180824 165.082156,155.132638 164.407932,155.132638 L159.640227,155.132638 C158.966002,155.132638 157.858365,155.180824 156.31728,155.277198 C154.776196,155.373572 153.162898,155.469945 151.477337,155.566319 C149.791776,155.662693 148.178478,155.759066 146.637394,155.85544 C145.09631,155.951814 143.988672,156 143.314448,156 L143.025496,155.421759 L143.458924,152.819672 L144.036827,152.241431 C146.830042,152.241431 148.997159,151.92822 150.538244,151.301788 C152.079328,150.675357 152.849858,148.964743 152.849858,146.169896 C152.849858,143.953292 152.103407,140.845276 150.610482,136.845753 C149.117556,132.846229 147.263467,127.810761 145.048159,121.739195 L142.592068,114.800298 L110.229462,114.800298 L107.773371,121.739195 C105.558063,127.810761 103.703973,132.846229 102.211048,136.845753 C100.718123,140.845276 99.9716714,143.953292 99.9716714,146.169896 C99.9716714,148.964743 100.742202,150.675357 102.283286,151.301788 C103.82437,151.92822 105.991487,152.241431 108.784703,152.241431 L109.507082,152.819672 L109.94051,155.421759 L109.651558,156 C108.977334,156 107.917854,155.951814 106.473088,155.85544 C105.028321,155.759066 103.511339,155.662693 101.922096,155.566319 C100.332853,155.469945 98.8158712,155.373572 97.3711048,155.277198 C95.9263384,155.180824 94.8668589,155.132638 94.1926346,155.132638 L91.4475921,155.132638 C90.7733677,155.132638 89.7620464,155.180824 88.4135977,155.277198 C87.0651491,155.373572 85.6685625,155.469945 84.223796,155.566319 C82.7790296,155.662693 81.4065221,155.759066 80.1062323,155.85544 C78.8059425,155.951814 77.8187003,156 77.1444759,156 L77,155.421759 L77.2889518,152.819672 L78.0113314,152.241431 C79.2634624,152.241431 80.4674163,152.193244 81.6232295,152.09687 C82.7790426,152.000496 83.9348384,151.639099 85.0906516,151.012668 C86.2464647,150.386236 87.3781814,149.42251 88.4858357,148.121461 C89.59349,146.820411 90.7252067,144.965238 91.8810198,142.555887 C92.1699731,142.074016 92.434843,141.519874 92.6756374,140.893443 C92.9164318,140.267011 93.3016971,139.327378 93.8314448,138.074516 C94.3611925,136.821653 95.0354067,135.159225 95.8541076,133.087183 C96.6728086,131.015141 97.7322881,128.316708 99.0325779,124.991803 C100.332868,121.666898 101.922087,117.595156 103.800283,112.776453 C105.675159,107.96627 107.957904,102.147822 110.648588,95.3209355 Z M117.484177,95.730378 L112.685552,108.584203 L140.280453,108.584203 L126.555241,71.4321908 L118.819324,92.1539891 C119.794117,92.2194981 120.801789,92.2522523 121.842353,92.2522523 L122.565882,92.8288288 L123,95.4234234 L122.855294,96 C122.179997,96 121.070596,95.9519524 119.527059,95.8558559 C118.855233,95.8140297 118.174273,95.7722039 117.484177,95.730378 Z"/>
    <filter id="logo--large-b" width="102.2%" height="101.5%" x="-1.1%" y="-.8%" filterUnits="objectBoundingBox">
      <feGaussianBlur in="SourceAlpha" result="shadowBlurInner1" stdDeviation="1.5"/>
      <feOffset dy="1" in="shadowBlurInner1" result="shadowOffsetInner1"/>
      <feComposite in="shadowOffsetInner1" in2="SourceAlpha" k2="-1" k3="1" operator="arithmetic" result="shadowInnerInner1"/>
      <feColorMatrix in="shadowInnerInner1" values="0 0 0 0 0   0 0 0 0 0   0 0 0 0 0  0 0 0 0.5 0"/>
    </filter>
  </defs>
  <g fill="none" fill-rule="evenodd">
    <use fill="#E7CC84" xlink:href="#logo--large-a"/>
    <use fill="#000" filter="url(#logo--large-b)" xlink:href="#logo--large-a"/>
  </g>
</svg>
