<svg xmlns="http://www.w3.org/2000/svg" width="33" height="64" viewBox="0 0 33 64">
  <path fill="#E7CC84" d="M13.4966196,44.7056009 L4.09615385,21.4226027 L4.09615385,41.4136986 C4.09615385,44.1876712 4.61538462,44.9458904 7.67307692,45.0568493 L7.67307692,45.8150685 C6.73076923,45.7410959 5,45.7041096 3.65384615,45.7041096 C2.32692308,45.7041096 0.865384615,45.7410959 0,45.8150685 L0,45.0568493 C2.67307692,44.9458904 3.19230769,44.1876712 3.19230769,41.4136986 L3.19230769,23.0130137 C3.19230769,20.2575342 2.67307692,19.8691781 0,19.7582192 L0,19 C0.865384615,19.0739726 2.32692308,19.1109589 3.65384615,19.1109589 C4.80769231,19.1109589 6.15384615,19.0739726 7.01923077,19 L15.327079,40.0914643 L31.2316354,0 L33,0.397269901 L25.5761524,19.1109589 L26,19.1109589 C27.8076923,19.1109589 29.7692308,19.0739726 31,19 L31,19.7582192 C28.3269231,19.8691781 27.8076923,20.2575342 27.8076923,23.0130137 L27.8076923,41.8020548 C27.8076923,44.5575342 28.3269231,44.9458904 31,45.0568493 L31,45.8150685 C29.7692308,45.7410959 27.8076923,45.7041096 26,45.7041096 C23.9423077,45.7041096 22.0576923,45.7410959 20.9615385,45.8150685 L20.9615385,45.0568493 C23.6346154,44.9458904 24.1346154,44.5575342 24.1346154,41.8020548 L24.1346154,22.7447181 L7.76836463,64 L6,63.6027301 L13.4966196,44.7056009 Z"/>
</svg>
