<svg xmlns="http://www.w3.org/2000/svg" width="20" height="20" viewBox="0 0 20 20">
  <path fill="#FFF" fill-rule="evenodd" d="M12.58,10.09 L12.53,10.09 C12.2268583,10.0897334 11.9536842,9.90700495 11.837713,9.62692351 C11.7217418,9.34684208 11.7857797,9.02448682 12,8.81 L19.11,1.75 L15.46,1.75 C15.0457864,1.75 14.71,1.41421356 14.71,1 C14.71,0.585786438 15.0457864,0.25 15.46,0.25 L20.92,0.25 C21.3342136,0.25 21.67,0.585786438 21.67,1 L21.67,6.46 C21.67,6.87421356 21.3342136,7.21 20.92,7.21 C20.5057864,7.21 20.17,6.87421356 20.17,6.46 L20.17,2.81 L13.11,9.87 C12.9694826,10.0106925 12.7788454,10.0898249 12.58,10.09 Z M21,10.81 C21.2006393,10.8073246 21.3939839,10.8851595 21.5368064,11.0261028 C21.679629,11.1670461 21.7600178,11.3593428 21.76,11.56 L21.76,17.76 C21.76,18.8645695 20.8645695,19.76 19.76,19.76 L4.24,19.76 C3.1354305,19.76 2.24,18.8645695 2.24,17.76 L2.24,2.25 C2.24,1.1454305 3.1354305,0.25 4.24,0.25 L10.11,0.25 C10.5242136,0.250000009 10.86,0.585786444 10.86,1 C10.86,1.41421356 10.5242136,1.74999999 10.11,1.75 L4.24,1.75 C3.96938047,1.75 3.75,1.96938047 3.75,2.24 L3.75,17.76 C3.75,18.0306195 3.96938047,18.25 4.24,18.25 L19.76,18.25 C20.0306195,18.25 20.25,18.0306195 20.25,17.76 L20.25,11.56 C20.25,11.1457864 20.5857864,10.81 21,10.81 Z" transform="translate(-2)"/>
</svg>
